<svg id="vector" xmlns="http://www.w3.org/2000/svg" width="108" height="108" viewBox="0 0 108 108">
    <g
        fill="grey"
        transform="scale(-1, 1) translate(-100, 0)" >
        <rect width="100" height="100" fill="#0299fd"/>
<path fill="#ffffff" d="M29.77,36.566 L60.448,67.245a1.306,1.306 0,0 0,1.846 0l5.717,-5.717a3.661,3.661 0,0 0,0 -5.177L46.02,34.36A4.456,4.456 0,0 0,42.869 33.055H31.225a2.057,2.057 0,0 0,-1.455 3.511z" stroke-width="1.345" stroke="#000000" stroke-linejoin="round" id="path_0"/>
<path fill="#ffffff" d="m47.258,63.456v15.497a1.379,1.379 0,0 0,2.352 0.974l7.059,-7.059a3.328,3.328 0,0 0,0 -4.706l-6.085,-6.086a1.95,1.95 0,0 0,-3.328 1.379z" stroke-width="1.345" stroke="#000000" stroke-linejoin="round" id="path_1"/>
<path fill="#ffffff" d="M70.6,49.53V34.032a1.379,1.379 0,0 0,-2.353 -0.974l-7.058,7.059a3.328,3.328 0,0 0,0 4.707l6.085,6.085a1.95,1.95 0,0 0,3.328 -1.379z" stroke-width="1.345" stroke="#000000" stroke-linejoin="round" id="path_2"/>
<path fill="#ffffff" d="m79.744,37.015 l-4.059,-4.059a1.035,1.035 0,0 0,-1.765 0.731v3.328a2.496,2.496 0,0 0,2.496 2.496h2.294a1.462,1.462 0,0 0,1.034 -2.496z" stroke-width="1.345" stroke="#000000" stroke-linejoin="round" id="path_3"/>
    </g>
</svg>